# xmcd CD database file
#
# Track frame offsets:
#	150
#	14741
#	31349
#	46933
#	61034
#	74755
#	94330
#	105240
#	123903
#	144681
#	155968
#	174137
#	193051
#	209508
#
# Disc length: 3017 seconds
#
# Revision: 0
# Processed by: cddbd v1.4PL0 Copyright (c) Steve Scherf et al.
# Submitted via: CDex 1.50
#
DISCID=ca0bc70e
DTITLE=Various Artist - artistas originales del salsa cubana
DYEAR=2001
DGENRE=Salsa
TTITLE0=Luis Santi - Sabor Dominante
TTITLE1=Conjunto Impacto - El Invento De Nelo
TTITLE2=Jovenes Del Hierro - Que Quiere Esa Nina
TTITLE3=Conjunto Century - Guaracha y Can
TTITLE4=Conjunto Casino - No Queremos Charpeons
TTITLE5=Jovenes Del Hierro - Son Salsa
TTITLE6=Willy Chirino - Palomilla, Bola Y Canada
TTITLE7=Orquestra Suprema - La Tijera
TTITLE8=Jovenes Del Hierro - Y Mas Nadie
TTITLE9=Cirano Y Los Cacos - Se Va A Caiman
TTITLE10=Coke - Na Na
TTITLE11=Evaristo Quintanales - Guantanamera
TTITLE12=Willy Chirino - No Bailo Con Lola
TTITLE13=Orquestra Suprema - Esa Navidad
EXTD=YEAR: 2001
EXTT0=
EXTT1=
EXTT2=
EXTT3=
EXTT4=
EXTT5=
EXTT6=
EXTT7=
EXTT8=
EXTT9=
EXTT10=
EXTT11=
EXTT12=
EXTT13=
PLAYORDER=
